# xmcd
# 
# Track frame offsets:
#     182
#     20625
#     47905
#     67052
#     85480
#     113015
#     135735
#     168090
# 
# Disc length: 3060
# 
# Revision: 43
# Processed by: cddbd v1.5.2PL0 Copyright (c) Steve Scherf et al.
# Submitted via: fre:ac v1.0.17
# 
DISCID=6b0bf208
DTITLE=Iron Maiden - Powerslave
DYEAR=1984
DGENRE=Heavy Metal
TTITLE0=Aces High
TTITLE1=2 Minutes To Midnight
TTITLE2=Losfer Words (Big 'Orra)
TTITLE3=Flash Of The Blade
TTITLE4=The Duellists
TTITLE5=Back In The Village
TTITLE6=Powerslave
TTITLE7=Rime Of The Ancient Mariner
EXTD=Martin Birch
EXTT0=Steve Harris
EXTT1=Smith, Dickinson
EXTT2=Steve Harris
EXTT3=Bruce Dickinson
EXTT4=Steve Harris
EXTT5=Smith, Dickinson
EXTT6=Bruce Dickinson
EXTT7=Steve Harris
PLAYORDER=
